<svg xmlns="http://www.w3.org/2000/svg" viewBox="40.35 128.51 405.15 194.16">
  <path id="Selection" fill="#f88a8a" stroke="black" stroke-width="1" d="M 264.02,129.74            C 268.19,128.72 273.31,128.35 276.77,131.43              281.88,135.97 280.83,145.57 273.98,148.26              260.01,153.76 251.18,136.82 264.02,129.74 Z            M 83.00,230.00            C 71.11,230.00 61.82,227.95 53.18,218.91              36.52,201.48 36.66,159.07 54.09,142.17              63.94,132.62 73.15,131.85 86.00,132.00              127.28,132.49 131.14,189.33 116.53,213.00              113.52,217.88 110.51,220.58 106.00,224.00              119.28,224.00 124.99,224.57 136.00,233.00              136.00,233.00 136.00,158.00 136.00,158.00              136.00,158.00 155.00,158.00 155.00,158.00              155.00,158.00 155.00,163.00 155.00,163.00              167.41,151.91 186.53,153.11 195.52,168.00              204.31,182.56 203.35,214.46 188.98,225.45              182.95,230.06 178.17,230.08 171.00,230.00              163.48,229.91 162.28,228.79 156.00,225.00              156.00,225.00 156.00,256.00 156.00,256.00              156.00,256.00 131.00,256.00 131.00,256.00              121.68,255.82 124.62,252.67 120.49,247.02              117.14,242.42 111.71,239.75 106.00,240.34              100.25,240.93 90.70,245.87 94.04,253.00              97.25,259.85 108.35,262.78 115.00,265.00              129.82,269.95 142.50,276.67 143.82,294.00              144.02,296.69 143.60,299.39 142.96,302.00              138.22,321.12 119.97,322.18 104.00,322.00              84.53,321.77 69.44,310.18 69.00,290.00              69.00,290.00 90.00,290.00 90.00,290.00              90.98,300.76 98.26,306.51 109.00,305.89              114.98,305.55 123.81,301.29 122.25,294.00              120.55,286.13 109.57,283.24 103.00,281.00              87.53,275.72 71.20,268.08 72.04,249.00              72.19,245.55 72.84,243.13 74.33,240.00              76.64,235.13 78.80,233.21 83.00,230.00 Z            M 216.00,140.00            C 216.00,140.00 236.00,140.00 236.00,140.00              236.00,140.00 236.00,158.00 236.00,158.00              236.00,158.00 248.00,158.00 248.00,158.00              248.00,158.00 248.00,172.00 248.00,172.00              248.00,172.00 236.00,172.00 236.00,172.00              236.00,172.00 236.00,202.00 236.00,202.00              236.01,204.92 235.71,208.33 237.60,210.77              240.64,214.71 244.82,213.74 249.00,213.00              249.00,213.00 249.00,321.00 249.00,321.00              249.00,321.00 229.00,321.00 229.00,321.00              229.00,321.00 229.00,239.00 229.00,239.00              229.00,236.66 229.21,233.29 227.98,231.26              225.71,227.52 219.54,227.52 216.79,218.00              215.64,214.02 216.00,206.40 216.00,202.00              216.00,202.00 216.00,172.00 216.00,172.00              216.00,172.00 205.00,172.00 205.00,172.00              205.00,172.00 205.00,158.00 205.00,158.00              205.00,158.00 216.00,158.00 216.00,158.00              216.00,158.00 216.00,140.00 216.00,140.00 Z            M 79.00,149.33            C 60.68,153.73 60.70,176.88 62.87,192.00              64.38,202.53 68.96,212.33 81.00,212.96              95.32,213.70 100.14,204.62 102.25,192.00              105.14,174.61 103.13,146.67 79.00,149.33 Z            M 316.00,156.47            C 326.15,155.05 337.40,155.45 346.00,161.63              358.74,170.79 359.16,183.88 359.00,198.00              358.88,208.18 354.90,217.10 347.00,223.67              339.19,230.16 331.54,230.11 322.00,230.00              298.10,229.72 290.76,210.54 291.00,190.00              291.20,173.58 299.46,160.40 316.00,156.47 Z            M 389.00,164.00            C 391.85,161.41 394.40,159.09 398.00,157.53              402.15,155.73 406.57,155.95 411.00,156.00              421.11,156.13 427.15,160.12 430.23,170.00              432.79,178.21 432.00,190.20 432.00,199.00              432.00,199.00 432.00,250.00 432.00,250.00              432.00,250.00 444.00,250.00 444.00,250.00              444.00,250.00 444.00,264.00 444.00,264.00              444.00,264.00 432.00,264.00 432.00,264.00              432.00,264.00 432.00,294.00 432.00,294.00              432.01,296.92 431.71,300.33 433.60,302.77              436.64,306.71 440.82,305.74 445.00,305.00              445.00,305.00 445.00,321.00 445.00,321.00              437.89,322.27 425.15,323.44 419.04,319.15              413.46,315.23 412.08,309.42 412.00,303.00              412.00,303.00 412.00,264.00 412.00,264.00              412.00,264.00 401.00,264.00 401.00,264.00              401.00,264.00 401.00,250.00 401.00,250.00              401.00,250.00 412.00,250.00 412.00,250.00              412.00,250.00 412.00,188.00 412.00,188.00              411.99,183.86 412.26,179.57 409.49,176.13              404.37,169.78 394.92,171.67 390.74,178.04              388.87,180.90 389.02,183.75 389.00,187.00              389.00,187.00 389.00,229.00 389.00,229.00              389.00,229.00 369.00,229.00 369.00,229.00              369.00,229.00 369.00,158.00 369.00,158.00              369.00,158.00 387.26,158.99 387.26,158.99              387.26,158.99 389.00,164.00 389.00,164.00 Z            M 259.00,158.00            C 259.00,158.00 279.00,158.00 279.00,158.00              279.00,158.00 279.00,229.00 279.00,229.00              279.00,229.00 259.00,229.00 259.00,229.00              259.00,229.00 259.00,158.00 259.00,158.00 Z            M 165.00,172.33            C 161.73,173.14 158.95,173.92 157.17,177.11              155.89,179.41 156.01,182.44 156.00,185.00              156.00,185.00 156.00,197.00 156.00,197.00              156.00,205.24 155.19,212.97 166.00,213.89              185.00,215.52 183.05,183.46 176.58,176.21              173.29,172.52 169.65,171.93 165.00,172.33 Z            M 322.00,172.39            C 310.37,176.17 308.99,192.77 312.04,203.00              314.30,210.54 319.76,215.46 328.00,213.61              338.94,211.15 339.04,199.84 339.00,191.00              338.95,179.84 334.80,170.77 322.00,172.39 Z            M 207.00,298.00            C 209.25,300.26 214.43,304.97 215.12,308.00              215.93,311.57 212.55,314.36 210.00,316.21              201.59,322.32 194.73,322.05 185.00,322.00              178.18,321.97 172.79,320.70 167.00,316.89              146.75,303.58 147.29,267.85 166.00,253.53              173.53,247.77 180.09,247.90 189.00,248.00              199.96,248.13 208.89,253.00 214.01,263.00              216.94,268.74 217.97,275.62 218.00,282.00              218.00,282.00 218.00,291.00 218.00,291.00              218.00,291.00 173.00,291.00 173.00,291.00              175.00,301.49 184.44,308.26 195.00,305.21              199.76,303.84 203.03,300.74 207.00,298.00 Z            M 316.00,298.00            C 318.25,300.26 323.43,304.97 324.12,308.00              324.93,311.57 321.55,314.36 319.00,316.21              310.59,322.32 303.73,322.05 294.00,322.00              287.18,321.97 281.79,320.70 276.00,316.89              255.75,303.58 256.29,267.85 275.00,253.53              282.53,247.77 289.09,247.90 298.00,248.00              308.96,248.13 317.89,253.00 323.01,263.00              325.94,268.74 326.97,275.62 327.00,282.00              327.00,282.00 327.00,291.00 327.00,291.00              327.00,291.00 282.00,291.00 282.00,291.00              284.00,301.49 293.44,308.26 304.00,305.21              308.76,303.84 312.03,300.74 316.00,298.00 Z            M 397.00,296.00            C 396.70,309.37 388.40,319.44 375.00,321.84              375.00,321.84 364.00,321.84 364.00,321.84              358.24,321.93 352.91,320.60 348.01,317.44              335.16,309.13 333.84,294.81 334.00,281.00              334.15,268.93 339.87,256.53 351.00,250.83              357.28,247.62 363.18,247.92 370.00,248.00              387.07,248.20 396.95,259.30 397.00,276.00              397.00,276.00 378.00,276.00 378.00,276.00              376.87,266.23 367.09,260.19 359.21,267.39              354.61,271.59 354.03,278.17 354.00,284.00              353.97,290.06 354.02,297.02 358.39,301.79              365.28,309.31 375.90,305.83 378.00,296.00              378.00,296.00 397.00,296.00 397.00,296.00 Z            M 198.00,278.00            C 197.62,262.81 184.76,261.42 178.33,266.80              174.76,269.78 173.69,273.63 173.00,278.00              173.00,278.00 198.00,278.00 198.00,278.00 Z            M 307.00,278.00            C 306.62,262.81 293.76,261.42 287.33,266.80              283.76,269.78 282.69,273.63 282.00,278.00              282.00,278.00 307.00,278.00 307.00,278.00 Z"/>
</svg>