<?xml version="1.0" encoding="UTF-8"?>
<svg xmlns="http://www.w3.org/2000/svg" xmlns:xlink="http://www.w3.org/1999/xlink" width="300px" height="144px" viewBox="0 0 100 48" version="1.1">
<g id="surface1">
<path style="fill-rule:nonzero;fill:rgb(97.254902%,54.117647%,54.117647%);fill-opacity:1;stroke-width:1;stroke-linecap:butt;stroke-linejoin:miter;stroke:rgb(0%,0%,0%);stroke-opacity:1;stroke-miterlimit:4;" d="M 264.015036 129.742461 C 268.195043 128.71541 273.309218 128.351992 276.776724 131.433145 C 281.875066 135.967969 280.830064 145.574844 273.974219 148.260977 C 260.009196 153.759648 251.174181 136.821211 264.015036 129.742461 Z M 82.992229 229.998418 C 71.117209 229.998418 61.823026 227.944316 53.178012 218.90627 C 36.521317 201.478008 36.663817 159.068711 54.096346 142.177676 C 63.944697 132.618203 73.143879 131.843965 86.000567 132.001973 C 127.278137 132.491797 131.141477 189.327207 116.527286 212.996777 C 113.518947 217.879219 110.510609 220.581152 105.998101 223.994121 C 119.28229 223.994121 124.9823 224.562949 136.002319 233.000566 C 136.002319 233.000566 136.002319 157.994258 136.002319 157.994258 C 136.002319 157.994258 155.002351 157.994258 155.002351 157.994258 C 155.002351 157.994258 155.002351 163.003105 155.002351 163.003105 C 167.415705 151.910957 186.526571 153.111816 195.51992 167.996152 C 204.307435 182.564473 203.357433 214.46625 188.980742 225.447793 C 182.948232 230.061621 178.166557 230.077422 170.994045 229.998418 C 163.473199 229.903613 162.285697 228.797559 155.999853 225.005371 C 155.999853 225.005371 155.999853 256.006504 155.999853 256.006504 C 155.999853 256.006504 130.998977 256.006504 130.998977 256.006504 C 121.673128 255.816895 124.618133 252.672539 120.485626 247.015859 C 117.144787 242.417832 111.713944 239.7475 105.998101 240.332129 C 100.250591 240.932559 90.703075 245.862402 94.043914 253.004355 C 97.242253 259.846094 108.357272 262.785039 115.007283 264.997148 C 129.827308 269.942793 142.493996 276.673926 143.823999 294.007383 C 144.013999 296.693516 143.602332 299.395449 142.953164 302.002578 C 138.218989 321.121523 119.963125 322.180176 104.003098 322.006367 C 84.528065 321.769355 69.438873 310.187383 68.995538 289.993984 C 68.995538 289.993984 90.006407 289.993984 90.006407 289.993984 C 90.972242 300.754316 98.255588 306.505801 109.00644 305.88957 C 114.975616 305.557754 123.810631 301.291543 122.243129 294.007383 C 120.548959 286.122793 109.576441 283.247051 103.005596 281.00334 C 87.536403 275.725879 71.196375 268.078301 72.035544 249.006758 C 72.193877 245.546387 72.843045 243.128867 74.331381 240.000313 C 76.643051 235.133672 78.796388 233.205977 82.992229 229.998418 Z M 215.992454 139.997168 C 215.992454 139.997168 236.005822 139.997168 236.005822 139.997168 C 236.005822 139.997168 236.005822 157.994258 236.005822 157.994258 C 236.005822 157.994258 248.007509 157.994258 248.007509 157.994258 C 248.007509 157.994258 248.007509 171.99375 248.007509 171.99375 C 248.007509 171.99375 236.005822 171.99375 236.005822 171.99375 C 236.005822 171.99375 236.005822 201.999434 236.005822 201.999434 C 236.005822 204.922578 235.704988 208.335547 237.604991 210.768867 C 240.644996 214.703262 244.825003 213.739414 249.00501 212.996777 C 249.00501 212.996777 249.00501 320.995117 249.00501 320.995117 C 249.00501 320.995117 229.007476 320.995117 229.007476 320.995117 C 229.007476 320.995117 229.007476 239.004863 229.007476 239.004863 C 229.007476 236.666348 229.21331 233.28498 227.978308 231.26248 C 225.714137 227.517695 219.539127 227.517695 216.784122 218.005625 C 215.64412 214.023828 215.992454 206.407852 215.992454 201.999434 C 215.992454 201.999434 215.992454 171.99375 215.992454 171.99375 C 215.992454 171.99375 205.004102 171.99375 205.004102 171.99375 C 205.004102 171.99375 205.004102 157.994258 205.004102 157.994258 C 205.004102 157.994258 215.992454 157.994258 215.992454 157.994258 C 215.992454 157.994258 215.992454 139.997168 215.992454 139.997168 Z M 79.002222 149.33543 C 60.683024 153.728047 60.698858 176.876191 62.868028 191.997539 C 64.372197 202.53666 68.963872 212.333145 80.997225 212.965176 C 95.326416 213.707813 100.139758 204.622363 102.245595 191.997539 C 105.1431 174.61668 103.132263 146.665098 79.002222 149.33543 Z M 315.995957 156.477383 C 326.145141 155.055313 337.40266 155.450332 346.000175 161.628438 C 358.74603 170.792891 359.157697 183.875938 358.999363 198.001836 C 358.872697 208.177539 354.898523 217.10498 346.997676 223.662305 C 339.19183 230.156426 331.544317 230.109023 321.996801 229.998418 C 298.10426 229.714004 290.757581 210.547656 290.995082 190.006641 C 291.200915 173.573828 299.465929 160.395977 315.995957 156.477383 Z M 389.003581 163.998555 C 391.853586 161.407227 394.402757 159.084512 397.99693 157.536035 C 402.14527 155.734746 406.562777 155.955957 410.996118 156.003359 C 421.113635 156.129766 427.146146 160.127363 430.233651 170.002852 C 432.782822 178.203457 432.006987 190.19625 432.006987 198.997285 C 432.006987 198.997285 432.006987 250.002207 432.006987 250.002207 C 432.006987 250.002207 443.992841 250.002207 443.992841 250.002207 C 443.992841 250.002207 443.992841 264.001699 443.992841 264.001699 C 443.992841 264.001699 432.006987 264.001699 432.006987 264.001699 C 432.006987 264.001699 432.006987 294.007383 432.006987 294.007383 C 432.006987 296.914727 431.706153 300.327695 433.606157 302.776816 C 436.646162 306.711211 440.826169 305.747363 445.006176 305.004727 C 445.006176 305.004727 445.006176 320.995117 445.006176 320.995117 C 437.896997 322.27498 425.151142 323.444238 419.039465 319.146426 C 413.466123 315.227832 412.072787 309.413145 411.99362 302.998027 C 411.99362 302.998027 411.99362 264.001699 411.99362 264.001699 C 411.99362 264.001699 401.005268 264.001699 401.005268 264.001699 C 401.005268 264.001699 401.005268 250.002207 401.005268 250.002207 C 401.005268 250.002207 411.99362 250.002207 411.99362 250.002207 C 411.99362 250.002207 411.99362 187.999941 411.99362 187.999941 C 411.99362 183.860137 412.262787 179.562324 409.491949 176.133555 C 404.377774 169.781641 394.925258 171.677734 390.745251 178.045449 C 388.876914 180.905391 389.019414 183.749531 389.003581 187.004492 C 389.003581 187.004492 389.003581 229.002969 389.003581 229.002969 C 389.003581 229.002969 369.006047 229.002969 369.006047 229.002969 C 369.006047 229.002969 369.006047 157.994258 369.006047 157.994258 C 369.006047 157.994258 387.261911 158.989707 387.261911 158.989707 C 387.261911 158.989707 389.003581 163.998555 389.003581 163.998555 Z M 258.995861 157.994258 C 258.995861 157.994258 278.993394 157.994258 278.993394 157.994258 C 278.993394 157.994258 278.993394 229.002969 278.993394 229.002969 C 278.993394 229.002969 258.995861 229.002969 258.995861 229.002969 C 258.995861 229.002969 258.995861 157.994258 258.995861 157.994258 Z M 164.993201 172.325566 C 161.731529 173.147207 158.944858 173.921445 157.171521 177.113203 C 155.889019 179.404316 156.015686 182.438066 155.999853 184.997793 C 155.999853 184.997793 155.999853 197.006387 155.999853 197.006387 C 155.999853 205.238594 155.192351 212.965176 166.006536 213.897422 C 185.006568 215.524902 183.043232 183.465117 176.583221 176.212559 C 173.289882 172.515176 169.648209 171.930547 164.993201 172.325566 Z M 321.996801 172.38877 C 310.375114 176.165156 308.997612 192.771777 312.037617 202.994883 C 314.301788 210.547656 319.764297 215.461699 327.997644 213.613008 C 338.938496 211.148086 339.033496 199.834727 339.00183 191.00209 C 338.954329 179.846738 334.805989 170.77709 321.996801 172.38877 Z M 206.999106 298.00498 C 209.247443 300.264492 214.424952 304.973125 215.12162 308.006875 C 215.929121 311.577852 212.556615 314.358789 210.007444 316.20748 C 201.584097 322.322383 194.728252 322.05377 185.006568 322.006367 C 178.18239 321.974766 172.783214 320.694902 167.004038 316.886914 C 146.75317 303.582656 147.291505 267.85709 166.006536 253.525781 C 173.527382 247.774297 180.082393 247.900703 188.996575 247.995508 C 199.95326 248.137715 208.883276 253.004355 214.013284 263.00625 C 216.942456 268.741934 217.971624 275.615273 218.003291 281.998789 C 218.003291 281.998789 218.003291 291.005234 218.003291 291.005234 C 218.003291 291.005234 173.004881 291.005234 173.004881 291.005234 C 174.999885 301.496953 184.436567 308.259688 194.997419 305.210137 C 199.76326 303.835469 203.024932 300.738516 206.999106 298.00498 Z M 315.995957 298.00498 C 318.244294 300.264492 323.437637 304.973125 324.118471 308.006875 C 324.925972 311.577852 321.553467 314.358789 319.004296 316.20748 C 310.596781 322.322383 303.725103 322.05377 294.00342 322.006367 C 287.179242 321.974766 281.795899 320.694902 276.000889 316.886914 C 255.750022 303.582656 256.288356 267.85709 275.003388 253.525781 C 282.524234 247.774297 289.095078 247.900703 297.993427 247.995508 C 308.965945 248.137715 317.89596 253.004355 323.010136 263.00625 C 325.939307 268.741934 326.968476 275.615273 327.000143 281.998789 C 327.000143 281.998789 327.000143 291.005234 327.000143 291.005234 C 327.000143 291.005234 282.001733 291.005234 282.001733 291.005234 C 283.996736 301.496953 293.433419 308.259688 303.99427 305.210137 C 308.760112 303.835469 312.037617 300.738516 315.995957 298.00498 Z M 396.999428 295.998281 C 396.698594 309.365742 388.401913 319.446641 375.006891 321.832559 C 375.006891 321.832559 364.002705 321.832559 364.002705 321.832559 C 358.239362 321.927363 352.90352 320.600098 348.011012 317.439941 C 335.154323 309.12873 333.840154 294.813223 333.998488 281.00334 C 334.156821 268.931543 339.872664 256.52793 351.003517 250.823848 C 357.273527 247.616289 363.179371 247.916504 370.003549 247.995508 C 387.071911 248.200918 396.951928 259.293066 396.999428 275.994492 C 396.999428 275.994492 377.999396 275.994492 377.999396 275.994492 C 376.875227 266.229609 367.090211 260.193711 359.205197 267.383066 C 354.613523 271.586074 354.027688 278.175 353.996022 284.005488 C 353.964355 290.057188 354.027688 297.025332 358.397696 301.797168 C 365.285207 309.302539 375.893559 305.826367 377.999396 295.998281 C 377.999396 295.998281 396.999428 295.998281 396.999428 295.998281 Z M 198.005757 278.001191 C 197.625757 262.816641 184.753235 261.426172 178.32489 266.798437 C 174.762384 269.784785 173.685716 273.624375 173.004881 278.001191 C 173.004881 278.001191 198.005757 278.001191 198.005757 278.001191 Z M 307.002609 278.001191 C 306.622608 262.816641 293.76592 261.426172 287.337575 266.798437 C 283.759236 269.784785 282.682567 273.624375 282.001733 278.001191 C 282.001733 278.001191 307.002609 278.001191 307.002609 278.001191 Z M 307.002609 278.001191 " transform="matrix(0.24671,0,0,0.247219,-9.932053,-31.770087)"/>
</g>
</svg>
